<?xml version="1.0" encoding="UTF-8" standalone="no"?>
<!-- Created with Inkscape (http://www.inkscape.org/) -->

<svg
   xmlns:dc="http://purl.org/dc/elements/1.1/"
   xmlns:cc="http://creativecommons.org/ns#"
   xmlns:rdf="http://www.w3.org/1999/02/22-rdf-syntax-ns#"
   xmlns:svg="http://www.w3.org/2000/svg"
   xmlns="http://www.w3.org/2000/svg"
   xmlns:xlink="http://www.w3.org/1999/xlink"
   xmlns:sodipodi="http://sodipodi.sourceforge.net/DTD/sodipodi-0.dtd"
   xmlns:inkscape="http://www.inkscape.org/namespaces/inkscape"
   width="57.855556mm"
   height="87.771141mm"
   viewBox="0 0 205 311.0001"
   id="svg8110"
   version="1.1"
   inkscape:version="0.91 r13725"
   sodipodi:docname="warmart-single.svg">
  <defs
     id="defs8112">
    <linearGradient
       inkscape:collect="always"
       xlink:href="#linearGradient12997"
       id="linearGradient8206"
       gradientUnits="userSpaceOnUse"
       x1="-263.01788"
       y1="431.18893"
       x2="-264.45795"
       y2="79.38327"
       gradientTransform="translate(-520,0)" />
    <linearGradient
       inkscape:collect="always"
       id="linearGradient12997">
      <stop
         style="stop-color:#ff740e;stop-opacity:1;"
         offset="0"
         id="stop12999" />
      <stop
         style="stop-color:#febe5d;stop-opacity:1"
         offset="1"
         id="stop13001" />
    </linearGradient>
    <linearGradient
       inkscape:collect="always"
       xlink:href="#linearGradient12997"
       id="linearGradient8208"
       gradientUnits="userSpaceOnUse"
       x1="-337.59961"
       y1="389.13867"
       x2="-189.09961"
       y2="389.13867"
       gradientTransform="translate(-520,0)" />
    <linearGradient
       inkscape:collect="always"
       xlink:href="#linearGradient12997"
       id="linearGradient8210"
       gradientUnits="userSpaceOnUse"
       x1="-365.77539"
       y1="340.35059"
       x2="-249.66602"
       y2="340.35059"
       gradientTransform="translate(-520,0)" />
    <linearGradient
       inkscape:collect="always"
       xlink:href="#linearGradient12997"
       id="linearGradient8212"
       gradientUnits="userSpaceOnUse"
       x1="-224.58656"
       y1="416.98633"
       x2="-167.65042"
       y2="327.16046"
       gradientTransform="translate(-520,0)" />
  </defs>
  <sodipodi:namedview
     id="base"
     pagecolor="#ffffff"
     bordercolor="#666666"
     borderopacity="1.0"
     inkscape:pageopacity="0.0"
     inkscape:pageshadow="2"
     inkscape:zoom="0.35"
     inkscape:cx="-451.07139"
     inkscape:cy="-115.92852"
     inkscape:document-units="px"
     inkscape:current-layer="layer1"
     showgrid="false"
     fit-margin-top="0"
     fit-margin-left="0"
     fit-margin-right="0"
     fit-margin-bottom="0"
     inkscape:window-width="1366"
     inkscape:window-height="715"
     inkscape:window-x="0"
     inkscape:window-y="25"
     inkscape:window-maximized="1" />
  <metadata
     id="metadata8115">
    <rdf:RDF>
      <cc:Work
         rdf:about="">
        <dc:format>image/svg+xml</dc:format>
        <dc:type
           rdf:resource="http://purl.org/dc/dcmitype/StillImage" />
        <dc:title></dc:title>
      </cc:Work>
    </rdf:RDF>
  </metadata>
  <g
     inkscape:label="Layer 1"
     inkscape:groupmode="layer"
     id="layer1"
     transform="translate(-246.07139,-105.43358)">
    <g
       inkscape:export-ydpi="90"
       inkscape:export-xdpi="90"
       transform="translate(1131.921,-14.755767)"
       id="g8279">
      <rect
         style="opacity:1;fill:#ffffff;fill-opacity:1;stroke:none;stroke-width:5;stroke-miterlimit:4;stroke-dasharray:none;stroke-opacity:1"
         id="rect8281"
         width="205"
         height="311"
         x="-885.84961"
         y="120.1894"
         ry="0" />
      <g
         id="g8283"
         inkscape:export-xdpi="90"
         inkscape:export-ydpi="90">
        <path
           inkscape:connector-curvature="0"
           style="opacity:1;fill:url(#linearGradient8206);fill-opacity:1;stroke:none;stroke-width:2;stroke-miterlimit:4;stroke-dasharray:none;stroke-opacity:1"
           d="m -783.34961,120.18945 c 0,0 -24.5091,36.33715 -49.55664,80.07227 l 3.18555,-1.28711 5.28125,-2.56836 0.004,-0.002 0,0.002 12.78125,3.52734 c 15.39687,-25.68752 28.30469,-44.84961 28.30469,-44.84961 0,0 79.5,117.80624 79.5,161.7129 0,43.90663 -35.59336,79.49994 -79.5,79.5 -43.90664,0 -79.5,-35.59337 -79.5,-79.5 0,-9.54197 3.77117,-22.58287 9.6543,-37.13868 l -0.004,-0.004 0.0449,-24.51172 0.0137,-16.73828 c -17.88205,34.79977 -32.70899,69.17069 -32.70899,90.28515 0,56.60919 45.89081,102.5 102.5,102.5 56.60919,0 102.5,-45.89081 102.5,-102.5 0,-56.60919 -102.5,-208.5 -102.5,-208.5 z"
           id="path8285" />
        <path
           inkscape:connector-curvature="0"
           style="opacity:1;fill:#b8b8b8;fill-opacity:1;stroke:none;stroke-width:2;stroke-miterlimit:4;stroke-dasharray:none;stroke-opacity:1"
           d="m -824.41602,196.39453 -5.30468,2.58008 0,182.38867 c 9.5588,6.87819 20.70765,11.67479 32.78906,13.75586 l 0,-127.63867 0.0117,-0.006 23.0957,-9.59766 -0.0527,137.83789 c 3.23951,-0.38493 6.42138,-0.95429 9.52929,-1.71679 l 0,-82.3418 5.58594,-2.72266 0,-94.34961 -65.6543,-18.18945 z m -11.71679,5.69531 -5.30469,2.57813 0,166.37305 c 1.68746,1.80656 3.45682,3.53286 5.30469,5.17578 l 0,-174.12696 z m -11.7168,5.69532 -5.30469,2.57812 0,144.48828 c 1.59368,2.91754 3.37046,5.72112 5.30469,8.40235 l 0,-155.46875 z"
           id="path8287" />
        <path
           inkscape:connector-curvature="0"
           style="opacity:1;fill:#cfcfcf;fill-opacity:1;stroke:none;stroke-width:2;stroke-miterlimit:4;stroke-dasharray:none;stroke-opacity:1"
           d="m -773.86719,257.89648 -4.25781,1.7754 0,136.45117 c 4.71755,-0.30617 9.31976,-1.03137 13.77734,-2.125 l 0,-82.3418 16.01954,-7.81055 -1.73047,85.14844 c 11.32198,-5.2302 21.19531,-13.04657 28.88281,-22.68945 l 0,-95.88867 -52.69141,-12.51954 z m -9.40429,3.91993 -4.25782,1.77539 0,132.58984 c 1.38454,0.0717 2.77729,0.11524 4.17969,0.11524 0.0261,-10e-6 0.052,2e-5 0.0781,0 l 0,-134.48047 z m -9.40235,3.91992 -4.25781,1.77539 0,127.60742 c 1.4071,0.24238 2.82643,0.44786 4.25781,0.61524 l 0,-129.99805 z"
           id="path8289" />
        <path
           inkscape:connector-curvature="0"
           style="opacity:1;fill:#b8b8b8;fill-opacity:1;stroke:none;stroke-width:2;stroke-miterlimit:4;stroke-dasharray:none;stroke-opacity:1"
           d="m -748.28711,303.82617 -2.96484,1.44531 0,84.25586 c 17.37761,-7.68165 31.47906,-21.39864 39.65234,-38.5039 l 0,-37.00196 -36.6875,-10.19531 z m -6.54687,3.19336 -2.96485,1.44336 0,83.61328 c 0.99734,-0.33846 1.98574,-0.69377 2.96485,-1.07031 l 0,-83.98633 z m -6.54883,3.19141 -2.96485,1.44531 0,82.3418 c 0.99698,-0.2446 1.98305,-0.51702 2.96485,-0.79883 l 0,-82.98828 z"
           id="path8291" />
        <path
           inkscape:connector-curvature="0"
           style="opacity:1;fill:url(#linearGradient8208);fill-opacity:1;stroke:none;stroke-width:5;stroke-miterlimit:4;stroke-dasharray:none;stroke-opacity:1"
           d="m -856.85938,347.08789 a 74.25,74.25 0 0 0 -0.74023,9.85156 74.25,74.25 0 0 0 74.25,74.25 74.25,74.25 0 0 0 74.25,-74.25 74.25,74.25 0 0 0 -0.74219,-9.84375 c -11.9148,28.87403 -40.33208,49.20113 -73.50781,49.20118 -33.17855,0 -61.59676,-20.33103 -73.50977,-49.20899 z"
           id="path8293" />
        <path
           inkscape:connector-curvature="0"
           style="opacity:1;fill:url(#linearGradient8210);fill-opacity:1;stroke:none;stroke-width:5;stroke-miterlimit:4;stroke-dasharray:none;stroke-opacity:1"
           d="m -853.18555,272.51172 a 74.25,74.25 0 0 0 -32.58984,59.92773 c 0.36743,10.21376 2.223,20.04728 5.36719,29.28711 a 74.25,74.25 0 0 0 68.80859,46.46289 74.25,74.25 0 0 0 41.93359,-13.07031 c -4.44601,0.7714 -9.017,1.17773 -13.68359,1.17774 -43.90664,0 -79.5,-35.59337 -79.5,-79.5 0,-9.54197 3.77117,-22.58287 9.6543,-37.13868 l -0.004,-0.004 0.0137,-7.14258 z"
           id="path8295" />
        <path
           inkscape:connector-curvature="0"
           style="opacity:1;fill:url(#linearGradient8212);fill-opacity:1;stroke:none;stroke-width:5;stroke-miterlimit:4;stroke-dasharray:none;stroke-opacity:1"
           d="m -710.66992,286.98242 c 4.23131,11.58701 6.82031,21.9039 6.82031,29.81446 0,10.7309 -2.13826,20.95933 -5.99219,30.29882 a 74.25,74.25 0 0 1 0.74219,9.84375 74.25,74.25 0 0 1 -30.70117,60.04688 77.074638,77.074638 0 0 0 53.92773,-73.49805 77.074638,77.074638 0 0 0 -24.79687,-56.50586 z m -0.0527,62.14063 c -0.16179,0.36293 -0.32318,0.7259 -0.49023,1.08593 0.16707,-0.3601 0.32842,-0.72294 0.49023,-1.08593 z m -1.41015,3.00781 c -0.16164,0.32515 -0.33015,0.64614 -0.4961,0.96875 0.16586,-0.32249 0.33454,-0.64372 0.4961,-0.96875 z m -4.04102,7.1582 c -0.22355,0.35266 -0.44686,0.70582 -0.67578,1.05469 0.22901,-0.3491 0.45215,-0.70179 0.67578,-1.05469 z m -1.84179,2.78321 c -0.20918,0.30127 -0.42351,0.59826 -0.63672,0.89648 0.21315,-0.29824 0.4276,-0.5952 0.63672,-0.89648 z m -4.95313,6.4082 c -0.30168,0.35211 -0.60247,0.70404 -0.91016,1.05078 0.30759,-0.34677 0.60858,-0.69864 0.91016,-1.05078 z m -2.20117,2.4707 c -0.32007,0.3437 -0.64661,0.68155 -0.97266,1.01953 0.32605,-0.33813 0.65259,-0.67567 0.97266,-1.01953 z m -5.73242,5.56445 c -0.40648,0.35727 -0.8128,0.71347 -1.22657,1.0625 0.4135,-0.34897 0.82035,-0.7053 1.22657,-1.0625 z m -2.61914,2.20899 c -0.4139,0.33345 -0.83325,0.66107 -1.25391,0.98633 0.42077,-0.3255 0.83991,-0.65264 1.25391,-0.98633 z m -2.6543,2.05859 c -0.81515,0.60198 -1.63997,1.19057 -2.47852,1.76172 0.83815,-0.57116 1.66377,-1.15975 2.47852,-1.76172 z m -93.9707,0.26758 a 77.074638,77.074638 0 0 0 0.004,0.008 c 1.63943,1.19649 3.32748,2.32779 5.0586,3.39844 -1.73292,-1.07175 -3.42116,-2.20878 -5.0625,-3.40625 z m 5.0625,3.40625 c 0.85684,0.52994 1.72544,1.04315 2.60351,1.54102 -0.87795,-0.49791 -1.74673,-1.01113 -2.60351,-1.54102 z m 85.27929,-1.1582 c -0.57667,0.37837 -1.15521,0.75354 -1.74219,1.11719 0.58681,-0.36373 1.16569,-0.73874 1.74219,-1.11719 z m -3.00781,1.88476 c -0.60101,0.35703 -1.20922,0.70343 -1.82031,1.04493 0.61119,-0.34173 1.21921,-0.68766 1.82031,-1.04493 z m -79.56641,0.8711 c 0.83964,0.47445 1.68861,0.93447 2.54688,1.3789 -0.85835,-0.44465 -1.70711,-0.90427 -2.54688,-1.3789 z m 76.55469,0.83593 c -0.94521,0.50709 -1.89958,0.99927 -2.86719,1.46876 0.96744,-0.46964 1.92216,-0.96151 2.86719,-1.46876 z m -73.79101,0.65235 c 0.8237,0.42334 1.65403,0.83342 2.49414,1.22851 -0.83941,-0.39502 -1.67108,-0.80532 -2.49414,-1.22851 z m 69.98046,1.25391 c -0.75426,0.35381 -1.51232,0.70066 -2.27929,1.03124 0.7669,-0.33071 1.52511,-0.67729 2.27929,-1.03124 z m -67.16796,0.12304 c 0.79058,0.36753 1.58814,0.72243 2.39257,1.06446 -0.80466,-0.3424 -1.60175,-0.69657 -2.39257,-1.06446 z m 2.91211,1.28125 c 0.74379,0.31 1.49301,0.60865 2.24804,0.89649 -0.75443,-0.2879 -1.50482,-0.58647 -2.24804,-0.89649 z m 60.83007,0.10547 c -0.73051,0.30134 -1.46771,0.59109 -2.20898,0.87109 0.7416,-0.28025 1.47816,-0.56947 2.20898,-0.87109 z m -57.92187,1.03906 c 0.72698,0.26972 1.45847,0.52847 2.19531,0.77735 -0.73694,-0.24919 -1.46823,-0.50731 -2.19531,-0.77735 z m 54.60351,0.25 c -1.07055,0.38611 -2.1489,0.75482 -3.24023,1.09571 1.09121,-0.341 2.16982,-0.70949 3.24023,-1.09571 z m -51.66797,0.77539 c 0.70701,0.23102 1.41919,0.45055 2.13477,0.66211 -0.71551,-0.21181 -1.42782,-0.43084 -2.13477,-0.66211 z m 47.85157,0.49024 c -0.91903,0.27941 -1.84454,0.54237 -2.77735,0.78906 0.93246,-0.24671 1.85867,-0.50963 2.77735,-0.78906 z m -44.89063,0.41406 c 0.71384,0.2026 1.43243,0.39318 2.1543,0.57617 -0.72171,-0.1832 -1.44063,-0.37336 -2.1543,-0.57617 z m 40.88282,0.68555 c -0.80497,0.19909 -1.61527,0.38619 -2.42969,0.56054 0.81477,-0.17449 1.62439,-0.36128 2.42969,-0.56054 z m -37.89454,0.10156 c 0.72291,0.17488 1.45117,0.33723 2.18164,0.49219 -0.73034,-0.15516 -1.45886,-0.3171 -2.18164,-0.49219 z m 3.03516,0.67188 c 0.70518,0.14147 1.41515,0.2699 2.12695,0.39257 -0.71163,-0.12283 -1.42195,-0.25093 -2.12695,-0.39257 z m 31.17773,0.0547 c -0.22481,0.0443 -0.45028,0.0865 -0.67578,0.12891 0.22551,-0.0425 0.45095,-0.0846 0.67578,-0.12891 z m -28.0664,0.50782 c 0.68834,0.10969 1.38205,0.20302 2.07617,0.29492 -0.69413,-0.092 -1.38783,-0.18505 -2.07617,-0.29492 z m 22.13476,0.42968 c -0.23539,0.0281 -0.47101,0.054 -0.70703,0.0801 0.23594,-0.0261 0.47172,-0.0519 0.70703,-0.0801 z m -19.03515,0.004 c 0.65119,0.0776 1.30695,0.13745 1.96289,0.19922 -0.65559,-0.0618 -1.31205,-0.12152 -1.96289,-0.19922 z m 15.92968,0.30664 c -0.10376,0.008 -0.20667,0.0194 -0.31054,0.0273 0.10393,-0.008 0.20672,-0.019 0.31054,-0.0273 z m -12.73828,0.01 c 0.73976,0.0581 1.48515,0.097 2.23047,0.13476 -0.74566,-0.0378 -1.49039,-0.0765 -2.23047,-0.13476 z m 9.76172,0.17187 c -0.23408,0.01 -0.46852,0.0174 -0.70312,0.0254 0.23464,-0.008 0.469,-0.0154 0.70312,-0.0254 z m -6.66211,0.0137 c 1.06537,0.0423 2.13516,0.0645 3.21094,0.0645 -1.07532,0 -2.14606,-0.0221 -3.21094,-0.0645 z"
           id="path8297" />
      </g>
    </g>
  </g>
</svg>
